<?xml version="1.0" encoding="utf-8"?>
<!-- Generator: Adobe Illustrator 26.0.2, SVG Export Plug-In . SVG Version: 6.00 Build 0)  -->
<svg version="1.1" id="Layer_1" xmlns:serif="http://www.serif.com/"
	 xmlns="http://www.w3.org/2000/svg" xmlns:xlink="http://www.w3.org/1999/xlink" x="0px" y="0px" viewBox="0 0 456 456"
	 style="enable-background:new 0 0 456 456;" xml:space="preserve">
<style type="text/css">
	.st0{display:none;}
	.st1{display:inline;fill:#FFFFFF;}
	
		.st2{clip-path:url(#SVGID_00000140004050642150237200000007197747418210434208_);fill:url(#SVGID_00000161610827810647861830000016113400461361319334_);}
	
		.st3{clip-path:url(#SVGID_00000108270912013835697940000014962987242451940253_);fill:url(#SVGID_00000105393138588824021200000001699705124973738123_);}
	
		.st4{clip-path:url(#SVGID_00000032620365918595077430000008577694765379794822_);fill:url(#SVGID_00000181049856950177879130000001318168210544884664_);}
	
		.st5{clip-path:url(#SVGID_00000015335157861771971300000000284003131199729564_);fill:url(#SVGID_00000084526184117788912220000016301766949716474242_);}
	.st6{fill:#231F20;}
</style>
<g class="st0">
	<path class="st1" d="M105.5,281.6c-2.7,0-5-0.9-6.9-2.7c-1.9-1.8-2.8-4-2.8-6.6c0-2.6,0.9-4.8,2.8-6.7c1.9-1.8,4.2-2.8,6.9-2.8
		c2.7,0,5.1,0.9,7,2.8c1.9,1.8,2.9,4.1,2.9,6.7c0,2.5-1,4.7-2.9,6.6C110.6,280.7,108.2,281.6,105.5,281.6z"/>
	<path class="st1" d="M213.6,280.1H196l-46.3-73c-1.2-1.8-2.1-3.8-2.9-5.8h-0.4c0.4,2.1,0.5,6.7,0.5,13.6v65.1h-15.5v-99.4h18.7
		l44.7,71.3c1.9,3,3.1,5,3.6,6.1h0.3c-0.5-2.6-0.7-7.1-0.7-13.4v-64h15.5L213.6,280.1z"/>
	<path class="st1" d="M289.3,280.1h-54.4v-99.4h52.2v14h-36.2v28.1h33.3v13.9h-33.3v29.4h38.3V280.1z"/>
	<path class="st1" d="M366.6,194.7h-27.8v85.4h-16.1v-85.4h-27.8v-14h71.7V194.7z"/>
</g>
<g>
	<defs>
		<path id="SVGID_1_" d="M244.3,152.6c2.6,2.3,5.3,4.6,8.1,6.8c9.2-2.4,17.4-4.6,23.5-6.2c2.3-0.6,4.7,0.8,5.3,3.1
			c0.6,2.3-0.8,4.7-3.1,5.3c-4.8,1.3-10.7,2.8-17.2,4.5c6.2,4.7,12.7,9.3,19.7,13.6l23-8.1c3.9-1.4,7-2,7.7-5.4
			c0.4-1.9-2.4-20.8-4.9-37.7c-17.6-7.5-32.7-16-47-24.3l-53.5,12.6c5.2,4.8,10.3,9.7,15.6,14.8l20.1-5.3c2.3-0.6,4.7,0.8,5.3,3.1
			c0.6,2.3-0.8,4.7-3.1,5.3c-4.1,1.1-9.2,2.4-14.9,3.9c2.5,2.3,5,4.7,7.5,7c4.2-1.1,8-2.1,11.2-2.9c2.3-0.6,4.7,0.8,5.3,3.1
			c0.6,2.3-0.8,4.7-3.1,5.3C248.3,151.5,246.4,152,244.3,152.6"/>
	</defs>
	<clipPath id="SVGID_00000116213583321560890160000009053580559419291009_">
		<use xlink:href="#SVGID_1_"  style="overflow:visible;"/>
	</clipPath>
	
		<linearGradient id="SVGID_00000002369157992883741860000012165658809823275686_" gradientUnits="userSpaceOnUse" x1="228.3438" y1="126.4382" x2="322.4702" y2="174.5603">
		<stop  offset="0" style="stop-color:#E14337"/>
		<stop  offset="1" style="stop-color:#FE9F2B"/>
	</linearGradient>
	
		<rect x="205.9" y="104.3" style="clip-path:url(#SVGID_00000116213583321560890160000009053580559419291009_);fill:url(#SVGID_00000002369157992883741860000012165658809823275686_);" width="105.8" height="75.5"/>
</g>
<g>
	<defs>
		<path id="SVGID_00000065050167359988341140000011350437366614252729_" d="M259.4,104.3c14.3,8.2,29.4,16.8,47,24.3
			c-2-13.6-3.8-26-3.7-27.3l-0.7-2.6c-1.1-1-2.3-3.3-5.8-2.9c-2.5,0.3-6.4,1.5-9,2.1L259.4,104.3z"/>
	</defs>
	<clipPath id="SVGID_00000119831950300846756970000004719433996659930002_">
		<use xlink:href="#SVGID_00000065050167359988341140000011350437366614252729_"  style="overflow:visible;"/>
	</clipPath>
	
		<linearGradient id="SVGID_00000109030959422371054610000010527315788454008222_" gradientUnits="userSpaceOnUse" x1="246.9462" y1="82.3483" x2="329.895" y2="150.4721">
		<stop  offset="0" style="stop-color:#FE7F3C"/>
		<stop  offset="1" style="stop-color:#FED547"/>
	</linearGradient>
	
		<rect x="259.4" y="95.3" style="clip-path:url(#SVGID_00000119831950300846756970000004719433996659930002_);fill:url(#SVGID_00000109030959422371054610000010527315788454008222_);" width="47" height="33.3"/>
</g>
<g>
	<defs>
		<path id="SVGID_00000130622723007704483310000002666037786687483037_" d="M244.3,152.6c-16.3,4.3-47.3,12.4-63.7,16.7
			c3.2,2.2,6.3,4.3,9.4,6.5c17.8-4.7,42.5-11.1,62.4-16.4C249.6,157.2,246.9,154.9,244.3,152.6 M229,138.7
			c-20.1,5.3-48,12.6-68.3,17.9c3.5,2.1,6.8,4.2,10.1,6.3c21.1-5.5,47.3-12.4,65.7-17.2C233.9,143.3,231.4,141,229,138.7z
			 M221.6,131.7c-5.3-5.1-10.5-10-15.6-14.8l-24.9,5.9c-5.4,1.3-12.8,3.5-18.1,4.2c-3.3-5-7-9.8-10.5-14.7c-3.6-5.1-7-9.9-10.6-14.9
			c-2.1-2.9-3-4.7-6.7-4.6c-3.2,0.1-6.9,0.6-10.2,0.8c-2.2,0.2-8.6,0.9-13.7,1.3c-8.3,0.7-6,11.8-0.3,11.3l22.2-1.9
			c1.9,3.2,14.1,19.9,17.4,24.4l13,18.2l4.9-1.3L221.6,131.7z M305.6,231.5c-4.5-7.7,7-14.2,11.3-6.9
			C321.7,232.5,310.3,239.4,305.6,231.5z M314.5,205.5c-20.3,5.3-41,10.5-61.6,15.8c4.4,2.9,8.9,5.7,13.5,8.4l36.5-9.4
			c-1.1,2-2.2,3.2-2.6,6c-0.4,2.5,0,5.1,1.4,7.5c3.5,6,8.2,5.3,11.2,5.9l3.5-0.9c2.1-2.1,2.9-1.8,4.7-4.6c2.7-4.4,2.1-9.8-1.2-13.5
			c-1.9-2.2-2.8-2.1-4.8-3.4c3.3-1.2,8.5-1.4,10.8-3.9c1.9-2.1,2.1-6.1-0.9-8.2C321.8,202.9,318.9,204.4,314.5,205.5z M260.9,166.2
			c-18.4,4.8-42.1,11-61.8,16.2c8.2,5.9,16,11.9,23.8,17.6c1.7-0.6,3.5-1.2,5.2-1.8c7.2-2.5,14.4-5.1,21.5-7.6l31-10.9
			C273.6,175.4,267.1,170.9,260.9,166.2z"/>
	</defs>
	<clipPath id="SVGID_00000045579408261867571000000000113292460457706911_">
		<use xlink:href="#SVGID_00000130622723007704483310000002666037786687483037_"  style="overflow:visible;"/>
	</clipPath>
	
		<linearGradient id="SVGID_00000037663678478013344100000010855169929093871767_" gradientUnits="userSpaceOnUse" x1="164.8627" y1="126.6023" x2="256.989" y2="198.8442">
		<stop  offset="0" style="stop-color:#FDA52A"/>
		<stop  offset="1" style="stop-color:#FE7C3E"/>
	</linearGradient>
	
		<rect x="103" y="92.6" style="clip-path:url(#SVGID_00000045579408261867571000000000113292460457706911_);fill:url(#SVGID_00000037663678478013344100000010855169929093871767_);" width="224.9" height="147.3"/>
</g>
<g>
	<defs>
		<path id="SVGID_00000018195170653920297840000018184029087218274974_" d="M207.4,248.6c3.4-0.3,6.6,2.1,7.1,6.1
			c1.1,8.4-12.3,10.5-13.2,1.1C201,252.5,203.4,248.9,207.4,248.6 M176.9,179.2c3.7-1,8.1-2.1,13-3.4c-3.1-2.2-6.2-4.3-9.4-6.5
			c-2.2,0.6-4.2,1.1-5.8,1.5c-2.3,0.6-3.7,3-3.1,5.3C172.3,178.4,174.6,179.8,176.9,179.2z M147.4,169c6.1-1.6,14.3-3.7,23.4-6.1
			c-3.3-2.1-6.7-4.2-10.1-6.3c-5.9,1.6-11.2,2.9-15.5,4.1c-2.3,0.6-3.7,3-3.1,5.3C142.7,168.3,145.1,169.6,147.4,169z M222.9,200
			c-7.8-5.8-15.6-11.7-23.8-17.6c-10,2.6-19,5-25.8,6.8c-2.3,0.6-3.7,3-3.1,5.3c0.6,2.3,3,3.7,5.3,3.1l2.3-0.6l18.2-4.8
			c2.4,3.2,5.5,7.3,6.6,9.6c-1.3,1.1-3,3.7-4.2,5.4c-3.9,5.3-8.8,10.9-10.4,17c-2.7,10.6,3.4,18.6,14.5,21
			c-3.7,3.2-7.4,6.7-5.3,13.5c0.8,2.7,2.1,4.5,3.6,5.6c-52.9,0.2-93.5,1.2-93.5,2.4c0,1.4,48.9,2.5,109.2,2.5
			c60.3,0,109.3-1.1,109.3-2.5c0-1.4-48.9-2.5-109.3-2.5H215c2.2-1.7,4.5-4.2,4.3-9.2c-0.2-5.6-3.6-8.9-8.3-10.8l55.4-14.3
			c-4.6-2.7-9.1-5.5-13.5-8.4c-15.2,3.9-30.4,7.8-45.3,11.9c-4,1.1-7.3,1.7-8.6-2.3c-1.1-3.4,0.7-6.7,2.1-8.6
			c3.5-4.7,6.7-9.1,10.3-13.9c2.1-2.8,3.5-5.7,6.1-6.6C219.3,201.3,221.1,200.6,222.9,200z"/>
	</defs>
	<clipPath id="SVGID_00000085214531519482488790000001425928499702503304_">
		<use xlink:href="#SVGID_00000018195170653920297840000018184029087218274974_"  style="overflow:visible;"/>
	</clipPath>
	
		<linearGradient id="SVGID_00000089562290807560202370000005950651958652989067_" gradientUnits="userSpaceOnUse" x1="111.9914" y1="141.5705" x2="274.4769" y2="252.4044">
		<stop  offset="0" style="stop-color:#DD393A"/>
		<stop  offset="1" style="stop-color:#FE6A44"/>
	</linearGradient>
	
		<rect x="107.2" y="156.6" style="clip-path:url(#SVGID_00000085214531519482488790000001425928499702503304_);fill:url(#SVGID_00000089562290807560202370000005950651958652989067_);" width="218.5" height="112.5"/>
</g>
<g>
	<path class="st6" d="M52.9,350.5c-3.8,0-7.1-1.4-9.9-4.1c-2.7-2.7-4.1-6-4.1-9.8v-55.5c0-0.9,0.5-1.3,1.4-1.3
		c0.9,0,1.4,0.4,1.4,1.3v55.5c0,3.1,1.1,5.7,3.3,7.9c2.2,2.2,4.8,3.2,7.9,3.2h15c0.9,0,1.3,0.5,1.3,1.4c0,0.9-0.4,1.4-1.3,1.4H52.9z
		"/>
	<path class="st6" d="M78.2,343.2c-4.9-4.8-7.3-10.7-7.3-17.5c0-6.8,2.4-12.7,7.3-17.5c4.8-4.9,10.7-7.3,17.5-7.3
		c4.8,0,9.3,1.3,13.3,4c4.1,2.6,7.1,6.1,9.1,10.5c0.2,0.4,0.2,0.7,0.1,1c-0.1,0.4-0.3,0.7-0.6,0.8c-4.5,2-10.9,4.8-19.1,8.6
		c-8.3,3.8-14.7,6.6-19,8.6c-0.5,0.2-1,0.5-1.8,0.8c-0.7,0.3-1.4,0.6-1.8,0.8c0.6,1.3,1.4,2.5,2.3,3.6c4.4,5.6,10.2,8.4,17.4,8.4
		c4.7,0,8.9-1.4,12.7-4.1c3.8-2.7,6.5-6.3,8.1-10.7c0.2-0.6,0.7-0.9,1.4-0.9c0.5,0,0.8,0.2,1,0.5c0.3,0.4,0.4,0.8,0.2,1.3
		c-1.7,4.9-4.7,8.9-9,12c-4.3,3-9.1,4.5-14.3,4.5C88.9,350.5,83.1,348.1,78.2,343.2z M80.2,310.3c-4.3,4.3-6.5,9.5-6.5,15.5
		c0,1.1,0.1,2.1,0.2,3.2c0.2,1.5,0.6,2.9,1.1,4.4c4.4-2,11.1-5.1,20.1-9.1c8.8-4,15.5-7,20.1-9c-0.8-1.4-1.7-2.6-2.6-3.6
		c-4.4-5.2-10-7.8-16.8-7.8C89.7,303.9,84.5,306,80.2,310.3z"/>
	<path class="st6" d="M155.7,326v20c0,1.2-0.4,2.3-1.3,3.1c-0.9,0.9-1.9,1.3-3.1,1.3h-0.1c-1.2,0-2.2-0.4-3.1-1.3
		c-0.9-0.8-1.3-1.9-1.3-3.1v-44.5c0-6.8,2.4-12.6,7.2-17.4c4.8-4.8,10.6-7.1,17.3-7.1c6.8,0,12.5,2.4,17.3,7.1
		c4.8,4.8,7.2,10.6,7.2,17.4c0,6.7-2.4,12.5-7.2,17.3c-4.8,4.8-10.5,7.2-17.3,7.2H155.7z M155.7,317h15.4c4.3,0,7.9-1.5,10.9-4.5
		c3-3,4.5-6.6,4.5-10.9c0-4.3-1.5-7.9-4.5-10.9c-3-3-6.7-4.5-10.9-4.5c-4.3,0-7.9,1.5-10.9,4.5c-3,3-4.5,6.7-4.5,10.9V317z"/>
	<path class="st6" d="M246.8,304.9c5.2,5.2,7.8,11.5,7.8,18.9V346c0,1.2-0.4,2.3-1.3,3.1c-0.9,0.9-1.9,1.3-3.1,1.3H250
		c-1.2,0-2.2-0.4-3.1-1.3c-0.9-0.8-1.3-1.9-1.3-3.1v-2.2c-5.1,4.5-10.9,6.7-17.6,6.7c-7.4,0-13.7-2.6-18.9-7.8
		c-5.2-5.2-7.8-11.5-7.8-18.9c0-7.4,2.6-13.7,7.8-18.9c5.2-5.2,11.5-7.8,18.9-7.8C235.3,297.1,241.6,299.7,246.8,304.9z
		 M215.4,311.3c-3.4,3.5-5.1,7.6-5.1,12.5c0,4.9,1.7,9.1,5.1,12.5c3.5,3.4,7.6,5.1,12.5,5.1c4.9,0,9-1.7,12.5-5.1
		c3.5-3.5,5.2-7.6,5.2-12.5c0-4.9-1.7-9-5.2-12.5c-3.4-3.5-7.6-5.2-12.5-5.2C223,306.1,218.9,307.9,215.4,311.3z"/>
	<path class="st6" d="M270.7,346c0,1.2-0.4,2.3-1.3,3.1c-0.9,0.9-1.9,1.3-3.1,1.3h-0.1c-1.2,0-2.2-0.4-3.1-1.3
		c-0.9-0.8-1.3-1.9-1.3-3.1v-26.7c0-6.1,2.2-11.4,6.5-15.7c4.3-4.3,9.6-6.5,15.7-6.5c6.1,0,11.3,2.2,15.6,6.5
		c4.3,4.3,6.5,9.6,6.5,15.7V346c0,1.2-0.4,2.3-1.3,3.1c-0.8,0.9-1.9,1.3-3.1,1.3h-0.1c-1.2,0-2.3-0.4-3.2-1.3
		c-0.9-0.8-1.3-1.9-1.3-3.1v-26.7c0-3.6-1.3-6.7-3.8-9.3c-2.6-2.6-5.7-3.9-9.3-3.9c-3.7,0-6.8,1.3-9.3,3.9c-2.5,2.6-3.8,5.7-3.8,9.3
		V346z"/>
	<path class="st6" d="M319.5,287.8c-1.5,0-2.8-0.5-3.8-1.6c-1-1-1.6-2.3-1.6-3.8c0-1.5,0.5-2.7,1.6-3.8c1-1,2.3-1.6,3.8-1.6
		c1.5,0,2.7,0.5,3.8,1.6c1.1,1,1.6,2.3,1.6,3.8c0,1.5-0.5,2.8-1.6,3.8C322.2,287.3,320.9,287.8,319.5,287.8z M319.5,297.1
		c1.2,0,2.3,0.4,3.1,1.3c0.9,0.9,1.3,1.9,1.3,3.2V346c0,1.2-0.4,2.3-1.3,3.1c-0.8,0.9-1.9,1.3-3.1,1.3h-0.1c-1.2,0-2.3-0.4-3.2-1.3
		c-0.9-0.8-1.3-1.9-1.3-3.1v-44.4c0-1.2,0.4-2.3,1.3-3.2C317.1,297.5,318.2,297.1,319.5,297.1L319.5,297.1z"/>
	<path class="st6" d="M382.4,312.7c0.5,1.1,0.6,2.2,0.1,3.4c-0.4,1.1-1.2,2-2.3,2.5c-4.6,2.1-10.6,4.8-18,8.1
		c-9.2,4.2-15.2,6.9-17.9,8.1c3.5,4.5,8.1,6.7,13.9,6.7c3.8,0,7.3-1.1,10.4-3.4c3-2.2,5.1-5,6.3-8.5c0.7-2,2.2-3,4.3-3
		c1.5,0,2.8,0.6,3.7,1.9c0.9,1.2,1.1,2.6,0.5,4.1c-1.8,5.3-5,9.5-9.6,12.8c-4.7,3.4-9.9,5-15.6,5c-7.4,0-13.7-2.6-18.9-7.8
		c-5.2-5.2-7.8-11.5-7.8-18.9c0-7.4,2.6-13.7,7.8-18.9c5.2-5.2,11.5-7.8,18.9-7.8c5.3,0,10.2,1.5,14.6,4.4
		C377,304.3,380.2,308,382.4,312.7z M358.1,306.2c-4.9,0-9.1,1.7-12.5,5.2c-3.4,3.5-5.1,7.6-5.1,12.5c0,0.9,0.1,1.7,0.2,2.6l30.9-14
		C368.1,308.3,363.6,306.2,358.1,306.2z"/>
	<path class="st6" d="M412.6,297.1c1.2,0,2.3,0.4,3.2,1.3c0.8,0.9,1.3,1.9,1.3,3.2v0.1c0,1.2-0.4,2.3-1.3,3.1
		c-0.9,0.9-1.9,1.3-3.2,1.3h-2.8c-3.1,0-5.7,1.1-7.8,3.2c-2.1,2.2-3.2,4.8-3.2,7.8V346c0,1.2-0.4,2.3-1.3,3.1
		c-0.9,0.9-1.9,1.3-3.1,1.3h-0.1c-1.2,0-2.2-0.4-3.1-1.3c-0.9-0.8-1.3-1.9-1.3-3.1v-28.8c0.1-5.6,2-10.3,5.9-14.2
		c3.9-3.9,8.7-5.9,14.2-5.9H412.6z"/>
</g>
</svg>
