<?xml version="1.0" encoding="utf-8"?>
<!-- Generator: Adobe Illustrator 26.0.2, SVG Export Plug-In . SVG Version: 6.00 Build 0)  -->
<svg version="1.1" id="Layer_1" xmlns:serif="http://www.serif.com/"
	 xmlns="http://www.w3.org/2000/svg" xmlns:xlink="http://www.w3.org/1999/xlink" x="0px" y="0px" viewBox="0 0 456 456"
	 style="enable-background:new 0 0 456 456;" xml:space="preserve">
<style type="text/css">
	.st0{display:none;fill:#FFFFFF;}
	
		.st1{clip-path:url(#SVGID_00000119798155737486513520000004091626701443149468_);fill:url(#SVGID_00000032609666692482089370000012598284786845378190_);}
	
		.st2{clip-path:url(#SVGID_00000061462708168279979650000014611644308091528350_);fill:url(#SVGID_00000068674369629971741650000004997605864565871020_);}
	
		.st3{clip-path:url(#SVGID_00000076571367780597772590000009620212680285921692_);fill:url(#SVGID_00000085962765549706384320000008360610910243800194_);}
	
		.st4{clip-path:url(#SVGID_00000098203111941162112570000013218149499877328276_);fill:url(#SVGID_00000041993406337777913560000010054925896112684173_);}
</style>
<path class="st0" d="M105.5,281.6c-2.7,0-5-0.9-6.9-2.7c-1.9-1.8-2.8-4-2.8-6.6s0.9-4.8,2.8-6.7c1.9-1.8,4.2-2.8,6.9-2.8
	c2.7,0,5.1,0.9,7,2.8c1.9,1.8,2.9,4.1,2.9,6.7c0,2.5-1,4.7-2.9,6.6C110.6,280.7,108.2,281.6,105.5,281.6z"/>
<path class="st0" d="M213.6,280.1H196l-46.3-73c-1.2-1.8-2.1-3.8-2.9-5.8h-0.4c0.4,2.1,0.5,6.7,0.5,13.6V280h-15.5v-99.4h18.7
	l44.7,71.3c1.9,3,3.1,5,3.6,6.1h0.3c-0.5-2.6-0.7-7.1-0.7-13.4v-64h15.5L213.6,280.1z"/>
<path class="st0" d="M289.3,280.1h-54.4v-99.4h52.2v14h-36.2v28.1h33.3v13.9h-33.3v29.4h38.3L289.3,280.1L289.3,280.1z"/>
<path class="st0" d="M366.6,194.7h-27.8v85.4h-16.1v-85.4h-27.8v-14h71.7L366.6,194.7L366.6,194.7z"/>
<g>
	<g>
		<g>
			<g>
				<defs>
					<path id="SVGID_1_" d="M252.1,198.9c2.6,2.3,5.6,4.6,8.4,7c9.4-2.5,18-4.6,24.3-6.3c2.3-0.6,4.8,0.8,5.6,3.3
						c0.6,2.3-0.8,4.8-3.3,5.6c-5,1.2-11,2.9-17.8,4.6c6.3,4.8,13,9.6,20.3,14.1l23.7-8.4c3.9-1.4,7.3-2,7.9-5.6
						c0.5-1.9-2.5-21.4-5.1-38.9c-18.1-7.6-33.8-16.4-48.5-24.9l-55.1,13c5.3,5,10.7,10.1,16.1,15.2l20.7-5.4
						c2.3-0.6,4.8,0.8,5.6,3.3c0.6,2.3-0.8,4.8-3.3,5.6c-4.2,1.2-9.4,2.5-15.5,4c2.5,2.5,5.1,4.8,7.7,7.3c4.3-1.2,8.4-2.2,11.5-3.1
						c2.3-0.6,4.8,0.8,5.6,3.3c0.6,2.3-0.8,4.8-3.3,5.6C256.4,197.8,254.5,198.4,252.1,198.9"/>
				</defs>
				<clipPath id="SVGID_00000111193337628561332320000006626959941535817626_">
					<use xlink:href="#SVGID_1_"  style="overflow:visible;"/>
				</clipPath>
				
					<linearGradient id="SVGID_00000037690785819175529180000001639412773231177150_" gradientUnits="userSpaceOnUse" x1="235.8029" y1="-102.051" x2="332.7946" y2="-151.6382" gradientTransform="matrix(1 0 0 -1 0 69.8898)">
					<stop  offset="0" style="stop-color:#E14337"/>
					<stop  offset="1" style="stop-color:#FE9F2B"/>
				</linearGradient>
				
					<rect x="212.7" y="149.2" style="clip-path:url(#SVGID_00000111193337628561332320000006626959941535817626_);fill:url(#SVGID_00000037690785819175529180000001639412773231177150_);" width="109.2" height="77.7"/>
			</g>
		</g>
	</g>
</g>
<g>
	<g>
		<g>
			<g>
				<defs>
					<path id="SVGID_00000004537895264152066620000013757639486540655013_" d="M267.9,149.2c14.7,8.5,30.3,17.3,48.5,24.9
						c-2-14.1-3.9-26.8-3.7-28.2l-0.8-2.6c-1.2-1.1-2.5-3.4-5.9-2.9c-2.5,0.3-6.7,1.5-9.3,2.2L267.9,149.2z"/>
				</defs>
				<clipPath id="SVGID_00000106864782306460128430000009853955582282709135_">
					<use xlink:href="#SVGID_00000004537895264152066620000013757639486540655013_"  style="overflow:visible;"/>
				</clipPath>
				
					<linearGradient id="SVGID_00000138552446950838940540000005526875667233149837_" gradientUnits="userSpaceOnUse" x1="254.964" y1="-56.6261" x2="340.4381" y2="-126.8239" gradientTransform="matrix(1 0 0 -1 0 69.8898)">
					<stop  offset="0" style="stop-color:#FE7F3C"/>
					<stop  offset="1" style="stop-color:#FED547"/>
				</linearGradient>
				
					<rect x="267.9" y="139.9" style="clip-path:url(#SVGID_00000106864782306460128430000009853955582282709135_);fill:url(#SVGID_00000138552446950838940540000005526875667233149837_);" width="48.5" height="34.2"/>
			</g>
		</g>
	</g>
</g>
<g>
	<g>
		<g>
			<g>
				<defs>
					<path id="SVGID_00000057113630815327127740000004937879916594373812_" d="M252.1,198.9c-16.7,4.3-48.8,12.7-65.7,17.2
						c3.3,2.2,6.7,4.5,9.6,6.7c18.4-4.8,43.7-11.5,64.3-16.9C257.8,203.7,255,201.2,252.1,198.9 M236.6,184.5
						c-20.7,5.6-49.5,13-70.4,18.4c3.6,2.2,7,4.3,10.4,6.5c21.7-5.7,48.8-12.7,67.7-17.8C241.5,189.3,239.1,186.8,236.6,184.5z
						 M228.7,177.4c-5.6-5.3-10.8-10.4-16.1-15.2l-25.7,6c-5.6,1.4-13.2,3.6-18.7,4.2c-3.4-5.1-7.3-10.1-10.8-15.2
						c-3.7-5.3-7.3-10.2-11-15.3c-2.2-3.1-3.1-5-7-4.8c-3.3,0.2-7.3,0.5-10.5,0.8c-2.2,0.2-9,0.9-14.1,1.4
						c-8.5,0.8-6.2,12.1-0.3,11.8l22.9-1.9c2,3.3,14.6,20.6,18,25.2l13.5,18.7l5.1-1.4L228.7,177.4z M315.4,280.2
						c-4.6-7.9,7.3-14.6,11.8-7.1C332,281.3,320.4,288.2,315.4,280.2z M324.7,253.4c-20.9,5.6-42.3,10.8-63.5,16.3
						c4.6,2.9,9.1,5.9,13.8,8.7l37.6-9.8c-1.2,2-2.2,3.3-2.6,6.2c-0.3,2.6,0.2,5.3,1.4,7.7c3.6,6.3,8.4,5.6,11.6,6l3.6-0.9
						c2.2-2.2,3.1-1.9,4.8-4.8c2.8-4.6,2.2-10.1-1.2-13.9c-2-2.2-2.9-2.2-5-3.6c3.4-1.2,8.8-1.5,11-4c1.9-2.2,2.2-6.3-0.8-8.5
						C332.1,250.8,329.2,252.3,324.7,253.4z M269.4,213c-18.9,5-43.2,11.3-63.6,16.7c8.4,6.2,16.4,12.2,24.5,18.1
						c1.9-0.6,3.6-1.2,5.4-1.9c7.4-2.6,14.7-5.3,22.3-7.9l31.9-11.1C282.4,222.4,275.8,217.8,269.4,213z"/>
				</defs>
				<clipPath id="SVGID_00000060725348001155572350000014435105806382513565_">
					<use xlink:href="#SVGID_00000057113630815327127740000004937879916594373812_"  style="overflow:visible;"/>
				</clipPath>
				
					<linearGradient id="SVGID_00000171721384871881542940000009857382685724418693_" gradientUnits="userSpaceOnUse" x1="170.3903" y1="-102.2172" x2="265.3212" y2="-176.6583" gradientTransform="matrix(1 0 0 -1 0 69.8898)">
					<stop  offset="0" style="stop-color:#FDA52A"/>
					<stop  offset="1" style="stop-color:#FE7C3E"/>
				</linearGradient>
				
					<rect x="106.5" y="137" style="clip-path:url(#SVGID_00000060725348001155572350000014435105806382513565_);fill:url(#SVGID_00000171721384871881542940000009857382685724418693_);" width="231.8" height="151.9"/>
			</g>
		</g>
	</g>
</g>
<g>
	<g>
		<g>
			<g>
				<defs>
					<path id="SVGID_00000072248669119991240470000008720291116776739762_" d="M214.3,297.8c3.6-0.3,6.8,2.2,7.3,6.3
						c1.2,8.7-12.7,10.8-13.6,1.2C207.6,301.9,210.1,298.1,214.3,297.8 M182.9,226.3c3.7-0.9,8.4-2.2,13.5-3.6
						c-3.3-2.2-6.3-4.5-9.6-6.7c-2.2,0.5-4.3,1.2-5.9,1.5c-2.3,0.6-3.9,3.1-3.3,5.6C178.1,225.5,180.5,226.9,182.9,226.3z
						 M152.4,215.8c6.3-1.5,14.7-3.9,24.2-6.3c-3.4-2.2-7-4.3-10.4-6.5c-6.2,1.5-11.6,3.1-15.9,4.2c-2.3,0.6-3.9,3.1-3.3,5.6
						C147.6,215,150,216.4,152.4,215.8z M230.1,247.7c-8.1-5.9-16.1-12.1-24.5-18.1c-10.4,2.6-19.5,5.1-26.6,7
						c-2.3,0.6-3.9,3.1-3.3,5.6c0.6,2.3,3.1,3.9,5.6,3.3l2.3-0.6l18.7-5c2.5,3.3,5.6,7.4,6.8,9.9c-1.4,1.2-3.1,3.7-4.3,5.6
						c-4,5.6-9.1,11.3-10.7,17.5c-2.8,10.8,3.6,19.2,15,21.5c-3.9,3.3-7.6,7-5.6,13.9c0.8,2.8,2.2,4.6,3.7,5.7
						c-54.5,0.2-96.5,1.2-96.5,2.5c0,1.4,50.3,2.5,112.6,2.5s112.6-1.2,112.6-2.5c0-1.4-50.3-2.5-112.6-2.5h-1.5
						c2.2-1.9,4.6-4.2,4.3-9.4c-0.2-5.9-3.7-9.1-8.5-11.1l57.1-14.7c-4.6-2.8-9.3-5.7-13.8-8.7c-15.8,4-31.3,8.1-46.6,12.2
						c-4.2,1.2-7.6,1.9-9-2.3c-1.2-3.6,0.8-6.8,2.2-8.8c3.6-4.8,7-9.3,10.7-14.2c2.2-2.9,3.6-5.9,6.3-6.8
						C226.5,249.1,228.4,248.3,230.1,247.7z"/>
				</defs>
				<clipPath id="SVGID_00000088837796066327155460000000981796128774310326_">
					<use xlink:href="#SVGID_00000072248669119991240470000008720291116776739762_"  style="overflow:visible;"/>
				</clipPath>
				
					<linearGradient id="SVGID_00000167369091731084863450000000547289617580948409_" gradientUnits="userSpaceOnUse" x1="115.9061" y1="-117.6461" x2="283.338" y2="-231.854" gradientTransform="matrix(1 0 0 -1 0 69.8898)">
					<stop  offset="0" style="stop-color:#DD393A"/>
					<stop  offset="1" style="stop-color:#FE6A44"/>
				</linearGradient>
				
					<rect x="111" y="203.1" style="clip-path:url(#SVGID_00000088837796066327155460000000981796128774310326_);fill:url(#SVGID_00000167369091731084863450000000547289617580948409_);" width="225.1" height="115.8"/>
			</g>
		</g>
	</g>
</g>
</svg>
